#!OML:ASF G:\ViconDB\ViconDB\414\test\team2\shane.ASF
:FULLY-SPECIFIED
:DEGREES
330
root 5.52489 16.2846 18.2904 -5.47465 1.52821 -6.30996
lowerback 5.55867 5.3974 7.04658
upperback 1.51441 7.55862 -1.99189
thorax -0.344459 3.82531 -6.35716
lowerneck -15.0669 -8.33893 -12.4478
upperneck 16.6446 -11.3661 13.5791
head 9.24308 -4.86671 5.20649
rclavicle 8.87077e-014 -7.95139e-015
rhumerus -25.8019 19.3229 -96.8954
rradius 34.0807
rwrist 29.7004
rhand -30.931 -14.8238
rfingers 7.12502
rthumb -4.21651 -44.7618
lclavicle 8.87077e-014 -7.95139e-015
lhumerus -48.4126 -3.16631 84.2844
lradius 14.559
lwrist -20.298
lhand -36.0705 7.87528
lfingers 7.12502
lthumb -9.17782 37.6556
rfemur 39.2592 -7.96785 19.2949
rtibia -3.49861e-014
rfoot -4.15895 0.0423032
rtoes -27.0121
lfemur -26.5764 7.31013 -10.0065
ltibia 40.9576
lfoot -19.6012 -12.7867
ltoes -5.94709
331
root 5.57132 16.2958 18.4996 -5.68728 1.58439 -6.05615
lowerback 5.63049 5.37998 6.70104
upperback 1.67441 7.51681 -2.05593
thorax -0.260929 3.81187 -6.23041
lowerneck -15.2517 -8.42156 -12.6395
upperneck 16.4939 -11.4736 13.9124
head 9.27695 -4.89239 5.33241
rclavicle -5.91384e-014 3.18055e-015
rhumerus -27.0861 18.851 -97.4074
rradius 33.6977
rwrist 29.7653
rhand -31.0963 -14.8953
rfingers 7.12502
rthumb -4.37612 -44.8301
lclavicle -5.91384e-014 3.18055e-015
lhumerus -48.1843 -3.74546 84.7913
lradius 14.7353
lwrist -19.7598
lhand -36.1582 7.89177
lfingers 7.12502
lthumb -9.26246 37.6683
rfemur 39.7929 -7.70361 18.6993
rtibia -1.90833e-014
rfoot -0.640825 0.486169
rtoes -28.08
lfemur -25.8022 7.64957 -10.3031
ltibia 41.4132
lfoot -19.5011 -12.9558
ltoes -5.88309
332
root 5.62261 16.3041 18.7069 -5.93053 1.54942 -5.83382
lowerback 5.76626 5.33814 6.50658
upperback 1.82143 7.45505 -2.14711
thorax -0.205643 3.78764 -6.22256
lowerneck -15.5665 -8.48071 -12.6638
upperneck 16.6172 -11.5443 13.9695
head 9.39343 -4.90609 5.33953
rclavicle -1.19221e-013 6.36111e-015
rhumerus -28.1107 18.0707 -97.814
rradius 33.1295
rwrist 29.8813
rhand -30.7872 -14.6343
rfingers 7.12502
rthumb -4.07763 -44.575
lclavicle -1.19221e-013 6.36111e-015
lhumerus -47.9021 -3.7573 84.7705
lradius 14.9847
lwrist -19.9043
lhand -35.6994 7.8338
lfingers 7.12502
lthumb -8.81977 37.6295
rfemur 35.4114 -7.64349 18.0347
rtibia 10.7091
rfoot -2.64288 0.768631
rtoes -29.2391
lfemur -24.963 8.2349 -10.5753
ltibia 41.8206
lfoot -19.4904 -13.1567
ltoes -5.11354
333
root 5.66843 16.3178 18.9117 -6.09253 1.25613 -5.37524
lowerback 5.89939 5.39458 5.96
upperback 1.9356 7.50337 -2.30113
thorax -0.203863 3.81339 -6.09036
lowerneck -15.6863 -8.4616 -12.7038
upperneck 16.4718 -11.5745 14.4009
head 9.40433 -4.87915 5.4908
rclavicle -1.26626e-013 -3.18055e-015
rhumerus -29.2497 17.8688 -98.4317
rradius 32.8484
rwrist 28.6037
rhand -30.3431 -14.4305
rfingers 7.12502
rthumb -3.64883 -44.3791
lclavicle -1.26626e-013 -3.18055e-015
lhumerus -47.7488 -4.98206 85.7604
lradius 15.752
lwrist -17.0761
lhand -35.4144 7.94449
lfingers 7.12502
lthumb -8.54468 37.7516
rfemur 32.2053 -7.30576 17.1041
rtibia 18.4756
rfoot -2.76645 1.20356
rtoes -27.7093
lfemur -24.1041 9.04156 -11.0667
ltibia 42.1744
lfoot -19.8568 -13.2212
ltoes -4.85442
334
root 5.71134 16.3255 19.1183 -6.26348 1.49365 -4.9168
lowerback 5.90121 5.26728 5.3104
upperback 2.09776 7.29366 -2.39184
thorax -0.138674 3.71113 -5.81169
lowerneck -15.8641 -8.47808 -12.8593
upperneck 16.4214 -11.6018 14.7025
head 9.45613 -4.8664 5.61574
rclavicle -1.15792e-014 6.36111e-015
rhumerus -30.2568 17.6849 -98.827
rradius 32.1655
rwrist 28.7286
rhand -30.3374 -14.2583
rfingers 7.12502
rthumb -3.64324 -44.2069
lclavicle -1.15792e-014 6.36111e-015
lhumerus -47.5858 -5.72045 86.4293
lradius 16.3187
lwrist -16.1277
lhand -35.586 8.17711
lfingers 7.12502
lthumb -8.71034 37.9774
rfemur 29.7837 -7.47896 16.1717
rtibia 24.5927
rfoot -1.80308 1.39235
rtoes -26.5677
lfemur -23.3393 9.34786 -11.6501
ltibia 42.5087
lfoot -20.162 -13.7295
ltoes -4.39682
335
root 5.75782 16.3326 19.3225 -6.41777 1.39927 -4.62578
lowerback 5.96708 5.23 5.0232
upperback 2.17727 7.22897 -2.4978
thorax -0.123974 3.68018 -5.76382
lowerneck -15.707 -8.46121 -13.1358
upperneck 16.1929 -11.6313 15.2902
head 9.41467 -4.85384 5.86925
rclavicle -3.31473e-014 4.29375e-014
rhumerus -31.1836 16.9745 -99.1637
rradius 31.4995
rwrist 28.9535
rhand -29.8213 -14.1578
rfingers 7.12502
rthumb -3.14484 -44.1143
lclavicle -3.31473e-014 4.29375e-014
lhumerus -47.5027 -6.4403 86.8587
lradius 16.9303
lwrist -15.4351
lhand -35.8091 8.20852
lfingers 7.12502
lthumb -8.92557 37.9997
rfemur 27.5155 -7.61478 15.334
rtibia 30.0255
rfoot -0.335508 1.80903
rtoes -24.1973
lfemur -22.5244 9.81453 -11.9845
ltibia 42.835
lfoot -20.3912 -14.406
ltoes -2.83266
336
root 5.80333 16.3281 19.5217 -6.62802 1.29254 -4.31557
lowerback 6.02587 5.13978 4.66865
upperback 2.32286 7.08935 -2.55413
thorax -0.0613897 3.61337 -5.61997
lowerneck -16.0204 -8.36 -12.931
upperneck 16.4558 -11.4878 15.0711
head 9.51095 -4.77584 5.77793
rclavicle -5.74488e-014 3.18055e-015
rhumerus -32.03 16.4809 -99.4202
rradius 30.7801
rwrist 29.5381
rhand -29.2694 -13.883
rfingers 7.12502
rthumb -2.61185 -43.8468
lclavicle -5.74488e-014 3.18055e-015
lhumerus -47.381 -7.24543 87.6294
lradius 17.6759
lwrist -14.1195
lhand -35.7059 8.33262
lfingers 7.12502
lthumb -8.82596 38.1281
rfemur 25.43 -7.87226 14.4326
rtibia 35.0103
rfoot 1.44566 2.35095
rtoes -22.0715
lfemur -21.604 10.2391 -12.3696
ltibia 43.1778
lfoot -21.1748 -14.3892
ltoes -2.52627
337
root 5.85027 16.3285 19.7258 -6.75488 1.03109 -4.03684
lowerback 5.91973 5.12519 4.38103
upperback 2.45694 7.04947 -2.5769
thorax 0.0984027 3.59892 -5.46383
lowerneck -16.0304 -8.34439 -13.2085
upperneck 16.4863 -11.4531 15.3098
head 9.55265 -4.75425 5.91809
rclavicle 2.93207e-014 -2.54444e-014
rhumerus -32.6664 15.6663 -99.4147
rradius 30.0152
rwrist 30.0724
rhand -28.5866 -13.4793
rfingers 7.12502
rthumb -1.95243 -43.4502
lclavicle 2.93207e-014 -2.54444e-014
lhumerus -47.0115 -7.20498 87.6179
lradius 18.0352
lwrist -14.462
lhand -35.6017 8.052
lfingers 7.12502
lthumb -8.72548 37.8517
rfemur 23.3473 -8.00088 13.5918
rtibia 39.5944
rfoot 3.48035 2.50843
rtoes -19.9427
lfemur -20.7419 10.5122 -12.6479
ltibia 43.6009
lfoot -22.2224 -14.1166
ltoes -2.61022
338
root 5.8901 16.3224 19.92 -6.93552 1.115 -3.53895
lowerback 5.90158 4.97461 3.79407
upperback 2.61828 6.8153 -2.69849
thorax 0.190621 3.48263 -5.24728
lowerneck -15.97 -8.19956 -13.3964
upperneck 16.3635 -11.2991 15.7841
head 9.52072 -4.65544 6.14806
rclavicle 4.67641e-014 4.77083e-015
rhumerus -33.2849 15.2699 -99.6098
rradius 29.2042
rwrist 30.7578
rhand -28.2353 -13.3164
rfingers 7.12502
rthumb -1.61317 -43.2901
lclavicle 4.67641e-014 4.77083e-015
lhumerus -46.8335 -7.97805 88.1056
lradius 18.8476
lwrist -13.7137
lhand -35.3944 8.24868
lfingers 7.12502
lthumb -8.52545 38.0566
rfemur 21.4479 -8.48922 12.5469
rtibia 43.8418
rfoot 5.43574 2.16781
rtoes -15.6134
lfemur -19.9431 10.502 -13.1717
ltibia 44.0529
lfoot -23.1731 -13.9637
ltoes -2.52719
339
root 5.92553 16.3043 20.1049 -7.2356 2.08071 -3.70727
lowerback 6.00429 4.38827 3.72051
upperback 2.84461 6.03285 -2.6166
thorax 0.257982 3.09487 -5.09373
lowerneck -15.9802 -8.04784 -13.3451
upperneck 16.2373 -11.0994 15.8736
head 9.44955 -4.55317 6.20173
rclavicle 7.85199e-015 -6.36111e-015
rhumerus -33.8013 15.2947 -99.8182
rradius 28.6678
rwrist 31.0232
rhand -27.508 -13.0529
rfingers 7.12502
rthumb -0.910777 -43.0307
lclavicle 7.85199e-015 -6.36111e-015
lhumerus -46.4232 -8.45124 88.4824
lradius 19.4754
lwrist -12.8095
lhand -35.5739 8.26839
lfingers 7.12502
lthumb -8.69865 38.0692
rfemur 19.9618 -9.60506 12.3792
rtibia 47.7792
rfoot 6.31929 0.806128
rtoes -12.9094
lfemur -19.3479 10.1226 -13.0167
ltibia 44.5349
lfoot -23.8303 -14.5655
ltoes -2.61517
